<svg width="96" height="96" viewBox="0 0 96 96" fill="none" xmlns="http://www.w3.org/2000/svg">
<circle cx="48" cy="48" r="48" fill="#00B87C"/>
<path d="M38 68H32C30.9391 68 29.9217 67.5786 29.1716 66.8284C28.4214 66.0783 28 65.0609 28 64V50C28 48.9391 28.4214 47.9217 29.1716 47.1716C29.9217 46.4214 30.9391 46 32 46H38M52 42V34C52 32.4087 51.3679 30.8826 50.2426 29.7574C49.1174 28.6321 47.5913 28 46 28L38 46V68H60.56C61.5247 68.0109 62.4608 67.6728 63.1958 67.048C63.9309 66.4232 64.4154 65.5538 64.56 64.6L67.32 46.6C67.407 46.0267 67.3683 45.4414 67.2067 44.8845C67.045 44.3276 66.7642 43.8126 66.3837 43.375C66.0032 42.9375 65.5322 42.5879 65.0031 42.3504C64.4741 42.113 63.8998 41.9934 63.32 42H52Z" stroke="#F6F6F6" stroke-width="2" stroke-linecap="round" stroke-linejoin="round"/>
</svg>
