<svg width="169" height="169" viewBox="0 0 169 169" fill="none" xmlns="http://www.w3.org/2000/svg">
<path d="M107.531 122.018C106.825 122.248 86.7478 121.987 85.9907 121.491C85.7 121.308 85.5682 118.378 85.5073 114.835V114.727C85.5073 113.997 85.4837 113.243 85.4837 112.483C85.4837 112.378 85.4837 112.273 85.4837 112.169L86.4537 101.738L99.8859 101.873L98.5609 112.216L98.544 112.625L98.4629 114.758V114.977C98.4629 114.977 106.102 118.516 106.879 119.148C107.656 119.78 108.234 121.788 107.531 122.018Z" fill="#D3766A"/>
<path d="M107.531 122.018C106.825 122.248 86.7478 121.987 85.9907 121.491C85.7 121.308 85.5682 118.378 85.5073 114.835V114.727C85.5073 113.997 85.4837 113.243 85.4837 112.483C85.4837 112.378 85.4837 112.273 85.4837 112.169L98.5643 112.206L98.5474 112.615L98.4663 114.748V114.967C98.4663 114.967 106.105 118.506 106.882 119.138C107.66 119.77 108.234 121.788 107.531 122.018Z" fill="#EBEBEB"/>
<path d="M107.531 122.018C107.17 122.133 101.714 122.123 96.3774 122.018C95.306 121.998 94.2379 121.971 93.2239 121.944C89.4214 121.839 86.278 121.683 85.9873 121.494C85.6966 121.305 85.5648 118.452 85.5074 114.988C85.5074 114.937 85.5074 114.89 85.5074 114.839C85.5074 114.788 85.5074 114.764 85.5074 114.727H85.5141L98.4528 114.751V114.971C98.4528 114.971 106.095 118.506 106.869 119.142C107.643 119.777 108.234 121.788 107.531 122.018Z" fill="#455A64"/>
<path d="M107.315 121.23C103.935 121.105 90.2731 120.913 86.9168 121.041C86.8897 121.041 86.8897 121.061 86.9168 121.065C90.2697 121.264 103.928 121.345 107.312 121.288C107.386 121.284 107.386 121.234 107.315 121.23Z" fill="#263238"/>
<path d="M99.906 114.798C98.5743 114.531 96.9451 114.717 95.9142 115.65C95.8737 115.687 95.9142 115.745 95.9683 115.731C97.2461 115.335 98.5629 115.079 99.8959 114.967C99.9183 114.969 99.9403 114.961 99.9571 114.946C99.9739 114.931 99.9841 114.91 99.9854 114.888C99.9868 114.865 99.9792 114.843 99.9643 114.827C99.9494 114.81 99.9284 114.8 99.906 114.798Z" fill="#263238"/>
<path d="M100.859 115.39C99.531 115.123 97.8984 115.309 96.8675 116.242C96.827 116.279 96.8675 116.336 96.925 116.323C98.2026 115.926 99.5195 115.67 100.853 115.559C100.875 115.56 100.897 115.552 100.913 115.536C100.93 115.521 100.94 115.5 100.94 115.478C100.941 115.455 100.933 115.433 100.918 115.417C100.903 115.4 100.882 115.391 100.859 115.39Z" fill="#263238"/>
<path d="M101.812 115.981C100.484 115.714 98.8515 115.9 97.8206 116.836C97.7834 116.87 97.8206 116.928 97.878 116.914C99.1564 116.521 100.473 116.265 101.806 116.15C101.828 116.151 101.85 116.143 101.866 116.128C101.883 116.113 101.893 116.092 101.893 116.069C101.894 116.047 101.886 116.025 101.871 116.008C101.856 115.992 101.835 115.982 101.812 115.981Z" fill="#263238"/>
<path d="M99.3451 114.788H83.5876C83.5876 114.788 87.0081 83.6921 86.8966 83.0972C86.8391 82.793 84.0067 78.5139 80.6402 73.5115C78.7575 70.7095 76.7093 67.6844 74.8942 64.9973C71.8826 60.5627 69.4862 57.061 69.4862 57.061H84.9159C84.9159 57.061 86.9912 59.569 89.7121 63.1146C93.5653 68.1407 98.7097 75.2488 101.066 80.2816C102.891 84.1889 99.3451 114.788 99.3451 114.788Z" fill="#263238"/>
<path d="M98.4191 82.3604C98.1284 80.6299 97.2632 79.1122 96.408 77.6081C94.0451 73.6062 91.4493 69.7463 88.634 66.0485C88.3524 65.6948 88.0684 65.3399 87.7823 64.9838C87.7654 64.9602 87.7248 64.9838 87.7451 65.0109C90.4881 68.677 93.04 72.4823 95.3906 76.4116C96.2661 77.9191 97.2463 79.4536 97.8073 81.0997C98.4022 82.8505 98.3177 84.7095 98.2265 86.5313C98.0372 90.2899 97.8118 94.0451 97.5505 97.7969C97.2823 101.594 96.977 105.385 96.6345 109.171C96.5939 109.634 96.55 110.097 96.5094 110.563C96.5094 110.712 96.6412 110.725 96.6548 110.563C97.0198 106.791 97.4186 103.053 97.7026 99.2706C97.9865 95.4883 98.2332 91.6622 98.436 87.8529C98.534 86.0412 98.7267 84.162 98.4191 82.3604Z" fill="#455A64"/>
<path d="M98.6962 112.321C96.4891 112.273 97.1245 112.256 94.914 112.236C93.8324 112.236 86.731 112.162 85.7204 112.331C85.7001 112.331 85.7001 112.371 85.7204 112.375C86.7344 112.54 93.8324 112.48 94.914 112.469C97.1245 112.449 96.4891 112.429 98.6962 112.385C98.7013 112.387 98.7067 112.387 98.712 112.386C98.7173 112.385 98.7223 112.383 98.7266 112.38C98.7309 112.377 98.7345 112.373 98.7369 112.368C98.7393 112.363 98.7406 112.358 98.7406 112.353C98.7406 112.347 98.7393 112.342 98.7369 112.337C98.7345 112.333 98.7309 112.329 98.7266 112.325C98.7223 112.322 98.7173 112.32 98.712 112.319C98.7067 112.319 98.7013 112.319 98.6962 112.321Z" fill="#455A64"/>
<path d="M85.5986 80.9745C81.5629 74.7452 69.4828 57.061 69.4828 57.061H77.5677L85.5986 80.9745Z" fill="#37474F"/>
<path d="M52.8194 135.2C53.5258 135.42 73.5996 134.956 74.3534 134.453C74.6407 134.264 74.7454 131.336 74.7657 127.794V127.683C74.7657 126.953 76.4557 114.683 76.4557 114.683L63.3346 114.95L61.8169 127.838V128.058C61.8169 128.058 54.2119 131.674 53.4413 132.313C52.6707 132.952 52.113 134.997 52.8194 135.2Z" fill="#D3766A"/>
<path d="M52.8194 135.2C53.5258 135.419 73.5996 134.956 74.3534 134.453C74.6407 134.264 74.7454 131.336 74.7657 127.794V127.683C74.7657 127.683 75.0598 125.225 75.0598 125.121L62.1042 125.35L61.8136 127.838V128.058C61.8136 128.058 54.2086 131.674 53.4379 132.313C52.6673 132.952 52.113 134.997 52.8194 135.2Z" fill="#EBEBEB"/>
<path d="M52.8194 135.2C53.5258 135.42 73.5996 134.957 74.3534 134.453C74.6407 134.264 74.7454 131.337 74.7657 127.794V127.683L61.8136 127.838V128.058C61.8136 128.058 54.2086 131.675 53.4379 132.313C52.6673 132.952 52.113 134.997 52.8194 135.2Z" fill="#455A64"/>
<path d="M53.0289 134.429C56.4089 134.27 70.0675 133.936 73.4205 134.034C73.4475 134.034 73.4509 134.054 73.4205 134.054C70.0743 134.287 56.4157 134.51 53.0289 134.487C52.9579 134.487 52.9579 134.433 53.0289 134.429Z" fill="#263238"/>
<path d="M60.3702 127.923C61.6986 127.642 63.3311 127.811 64.3688 128.734C64.4093 128.771 64.3688 128.829 64.3147 128.815C63.0329 128.436 61.7137 128.197 60.3804 128.102C60.3686 128.103 60.3568 128.101 60.3457 128.097C60.3346 128.093 60.3243 128.087 60.3155 128.079C60.3068 128.071 60.2996 128.062 60.2945 128.051C60.2894 128.041 60.2864 128.029 60.2857 128.017C60.2851 128.006 60.2867 127.994 60.2906 127.983C60.2945 127.972 60.3005 127.961 60.3084 127.953C60.3162 127.944 60.3257 127.937 60.3363 127.931C60.3469 127.926 60.3585 127.923 60.3702 127.923Z" fill="#263238"/>
<path d="M59.4238 128.524C60.7487 128.244 62.3813 128.409 63.4223 129.336C63.4629 129.373 63.4223 129.43 63.3682 129.417C62.0868 129.034 60.7676 128.792 59.4339 128.693C59.4228 128.694 59.4117 128.693 59.4012 128.689C59.3907 128.685 59.381 128.68 59.3727 128.672C59.3644 128.665 59.3576 128.656 59.3527 128.646C59.3479 128.636 59.345 128.625 59.3444 128.614C59.3437 128.603 59.3452 128.592 59.3489 128.581C59.3525 128.571 59.3582 128.561 59.3655 128.553C59.3729 128.544 59.3818 128.538 59.3918 128.533C59.4018 128.528 59.4127 128.525 59.4238 128.524Z" fill="#263238"/>
<path d="M58.474 129.116C59.799 128.835 61.4315 129.001 62.4725 129.927C62.5131 129.964 62.4725 130.022 62.4151 130.008C61.1311 129.628 59.8097 129.389 58.474 129.295C58.4502 129.295 58.4275 129.286 58.4107 129.269C58.3939 129.252 58.3844 129.229 58.3844 129.206C58.3844 129.182 58.3939 129.159 58.4107 129.142C58.4275 129.125 58.4502 129.116 58.474 129.116Z" fill="#263238"/>
<path d="M84.9126 57.061C84.9126 57.061 83.0637 68.33 82.9387 68.6916C82.9387 68.6916 82.2627 69.0296 81.0087 69.5907L75.5331 128.028L61.0768 128.102L69.1348 57.0779L84.9126 57.061Z" fill="#263238"/>
<path d="M75.0361 125.455C72.8256 125.418 73.461 125.398 71.2505 125.388C70.1723 125.388 63.0675 125.351 62.0603 125.52C62.054 125.52 62.048 125.522 62.0436 125.526C62.0391 125.531 62.0366 125.537 62.0366 125.543C62.0366 125.55 62.0391 125.556 62.0436 125.56C62.048 125.564 62.054 125.567 62.0603 125.567C63.0743 125.729 70.1723 125.638 71.2539 125.621C73.461 125.591 72.8256 125.577 75.0361 125.52C75.0429 125.517 75.0488 125.513 75.0529 125.507C75.0571 125.502 75.0594 125.495 75.0594 125.487C75.0594 125.48 75.0571 125.473 75.0529 125.468C75.0488 125.462 75.0429 125.458 75.0361 125.455Z" fill="#455A64"/>
<path d="M72.4032 65.2339C71.8421 73.2817 71.6021 76.8713 70.943 84.9157C70.2839 92.9601 69.4998 101.048 68.5263 109.089C67.9822 113.581 67.3907 119.905 66.7383 124.384C66.7383 124.414 66.7823 124.424 66.7856 124.384C68.1376 116.427 69.084 106.561 69.8986 98.5371C70.7132 90.5129 71.3588 82.4652 71.9266 74.4174C72.2646 69.8645 72.197 69.7733 72.5012 65.2204C72.508 65.1731 72.41 65.1765 72.4032 65.2339Z" fill="#455A64"/>
<path d="M83.5367 68.3435C82.1001 68.9441 80.7181 69.6678 79.4063 70.5067C79.3522 70.5405 79.4063 70.6216 79.4469 70.5946C80.8428 69.9186 82.2658 69.2629 83.6212 68.5091C83.6386 68.4956 83.6507 68.4765 83.6555 68.455C83.6603 68.4335 83.6575 68.411 83.6475 68.3914C83.6374 68.3717 83.6209 68.3562 83.6007 68.3475C83.5805 68.3387 83.5578 68.3373 83.5367 68.3435Z" fill="#455A64"/>
<path d="M83.006 61.8877C82.7796 63.2397 82.6511 64.5917 82.499 65.964C82.4652 66.302 82.4247 66.6163 82.3909 66.9408C82.3815 67.2417 82.3004 67.5361 82.1543 67.7993C81.8636 68.2556 81.3363 68.4753 80.8631 68.6747C80.8057 68.6984 80.8293 68.7863 80.8902 68.766C81.4018 68.644 81.874 68.3939 82.2624 68.0393C82.6985 67.583 82.6849 66.8867 82.7492 66.2986C82.9407 64.8414 83.0468 63.3742 83.0669 61.9046C83.0669 61.8539 83.0128 61.8539 83.006 61.8877Z" fill="#455A64"/>
<path d="M81.3669 62.3C81.3196 63.2734 81.2114 64.2435 81.1303 65.2135C81.0898 65.6901 81.056 66.1701 81.0255 66.65C80.9951 67.13 80.941 67.637 80.9546 68.1237C80.9546 68.1575 81.0086 68.1643 81.0154 68.1237C81.0931 67.6607 81.1067 67.1807 81.1438 66.7143C81.181 66.2478 81.2182 65.7341 81.2452 65.2406C81.2993 64.2604 81.3264 63.2734 81.4142 62.2932C81.4176 62.2696 81.3669 62.2696 81.3669 62.3Z" fill="#455A64"/>
<path d="M89.7086 63.1147L83.7834 63.882L74.8873 65.0109L68.1273 65.8694L69.1244 57.0814H84.9022C84.9022 57.0814 86.9877 59.5691 89.7086 63.1147Z" fill="#263238"/>
<path d="M73.5388 41.6314C67.4886 43.0172 59.3428 42.2195 57.281 39.671C55.3612 37.2847 55.3476 26.5802 57.1052 21.5711C57.4872 20.4793 65.5552 23.1123 65.3322 24.3291C64.8015 27.1751 63.8517 33.6005 64.7373 34.7024C65.5248 35.6826 70.2399 36.9839 74.6136 37.9066C79.927 39.0254 75.9487 41.0804 73.5388 41.6314Z" fill="#D3766A"/>
<path d="M57.9839 17.4611C57.0544 19.1511 56.5136 23.3693 56.7739 24.434C57.0341 25.4987 64.1625 26.6614 64.9873 25.8908C65.812 25.1202 68.4923 19.1714 68.1509 17.238C67.8096 15.3047 58.9438 15.7035 57.9839 17.4611Z" fill="#D3766A"/>
<path d="M68.0766 20.3205C67.191 20.8343 67.0896 19.4958 67.0896 19.4958C67.0896 19.4958 66.7516 21.4596 65.6497 21.6353C64.5478 21.8111 64.5107 20.1819 64.5039 20.067C64.487 20.1684 64.1422 21.9632 62.9998 22.0274C61.8574 22.0916 62.0297 20.4523 62.0433 20.3374C61.9959 20.4287 61.347 21.6421 60.4682 21.49C58.9573 21.2331 60.5358 18.0863 60.0964 16.927C60.0964 16.927 58.0447 17.4475 57.9839 17.4509C57.9839 17.4509 59.4238 14.4258 61.0259 13.9188C61.2573 13.8425 61.5078 13.8471 61.7362 13.9319C61.9647 14.0166 62.1576 14.1765 62.2832 14.3852C62.2832 14.3852 62.6381 13.3712 63.5372 13.28C63.9969 13.2428 64.4701 13.956 64.4701 13.956C64.5626 13.7318 64.7137 13.5366 64.9076 13.391C65.1015 13.2453 65.3309 13.1544 65.572 13.1279C66.2142 13.111 66.586 13.8039 66.586 13.8039C66.586 13.8039 67.262 13.1684 67.9143 13.3645C69.2596 13.7667 69.966 19.2186 68.0766 20.3205Z" fill="#D3766A"/>
<path d="M66.6774 13.9221C66.6774 13.9019 66.6976 13.8951 66.7044 13.9221C67.4087 15.7239 67.5478 17.6975 67.1032 19.5803C67.1032 19.6377 66.9849 19.6377 66.9883 19.5803C67.161 17.6891 67.0562 15.7829 66.6774 13.9221Z" fill="#263238"/>
<path d="M64.4703 13.929C64.4703 13.9087 64.5008 13.8986 64.5109 13.929C65.2645 15.9202 65.2813 18.1153 64.5582 20.1178C64.5312 20.1887 64.4365 20.2225 64.4636 20.1414C64.8962 18.7556 64.8523 15.6629 64.4703 13.929Z" fill="#263238"/>
<path d="M61.9388 20.4692C62.6148 18.502 62.6148 16.5112 62.3106 14.4663C62.3106 14.4426 62.3444 14.4393 62.3545 14.4663C62.7737 15.4262 62.8345 16.7478 62.7939 17.7787C62.7733 18.7384 62.503 19.6761 62.0098 20.4996C61.9895 20.5233 61.9253 20.5097 61.9388 20.4692Z" fill="#263238"/>
<path d="M67.0898 19.4957C66.9953 19.8668 66.8651 20.2279 66.7011 20.5739C66.5574 20.9177 66.3239 21.2166 66.0251 21.4392C65.8843 21.5343 65.713 21.5729 65.5451 21.5474C65.3744 21.5225 65.2133 21.4524 65.0787 21.3446C64.9527 21.2279 64.8527 21.0861 64.7852 20.9283C64.7176 20.7705 64.684 20.6002 64.6866 20.4286L64.6697 19.6039L64.3959 20.4015C64.2783 20.7506 64.1048 21.0782 63.8821 21.3716C63.7853 21.5151 63.6595 21.6368 63.5128 21.7288C63.3661 21.8208 63.2018 21.881 63.0304 21.9056C62.8708 21.9254 62.7093 21.8899 62.5728 21.805C62.4362 21.7201 62.3329 21.591 62.28 21.4392C62.1662 21.0973 62.1418 20.7319 62.209 20.3779L62.3645 19.3943L61.8947 20.2799C61.7666 20.5246 61.6076 20.7518 61.4215 20.9559C61.2532 21.1572 61.0283 21.3032 60.7759 21.375C60.6618 21.4027 60.5422 21.3981 60.4306 21.3617C60.319 21.3253 60.2197 21.2585 60.1439 21.1688C60.0032 20.9416 59.9304 20.6789 59.9343 20.4117C59.9356 19.8355 59.982 19.2603 60.0729 18.6913C60.1067 18.404 60.1439 18.1133 60.1641 17.8226C60.2029 17.5304 60.1799 17.2333 60.0966 16.9506C60.1507 17.2353 60.1507 17.5277 60.0966 17.8125C60.0526 18.0998 59.9952 18.3837 59.9377 18.6676C59.805 19.2426 59.7269 19.8288 59.7045 20.4184C59.6874 20.7375 59.7637 21.0547 59.9242 21.331C60.0291 21.4702 60.1721 21.5761 60.3357 21.636C60.4994 21.696 60.6769 21.7075 60.8469 21.669C61.1617 21.5879 61.4452 21.4149 61.6615 21.1722C61.8732 20.9488 62.055 20.6988 62.2023 20.4286L61.8913 20.3204C61.8043 20.7383 61.8276 21.1716 61.9589 21.5778C62.0404 21.7997 62.1955 21.987 62.3983 22.1084C62.6038 22.2236 62.8401 22.2721 63.0743 22.247C63.2917 22.2172 63.5002 22.1415 63.6861 22.0249C63.872 21.9084 64.031 21.7537 64.1525 21.571C64.3952 21.24 64.5814 20.8711 64.7035 20.4793L64.4094 20.4353C64.4145 20.6485 64.4658 20.858 64.5598 21.0494C64.6537 21.2408 64.7881 21.4096 64.9536 21.544C65.1279 21.6681 65.332 21.7439 65.5451 21.7637C65.7614 21.7856 65.9782 21.7266 66.1535 21.5981C66.4664 21.3427 66.7007 21.004 66.8295 20.6212C66.9582 20.257 67.0455 19.8795 67.0898 19.4957Z" fill="#263238"/>
<path d="M65.6229 24.9579C65.6229 24.9579 72.0753 19.8879 68.8575 18.3398C67.9044 17.8801 63.4293 17.1264 63.2603 18.0221C63.0406 19.1781 64.8522 19.8405 66.0521 20.0771C66.0521 20.0771 63.6152 21.49 64.0951 23.4808C64.1882 23.8442 64.3803 24.1747 64.6501 24.4355C64.9198 24.6962 65.2565 24.8771 65.6229 24.9579Z" fill="#D3766A"/>
<path d="M69.1177 18.4852C68.7654 18.2595 68.3815 18.0875 67.9786 17.9748C67.578 17.8497 67.1691 17.7526 66.755 17.6841C65.9288 17.531 65.0907 17.4507 64.2505 17.4441C64.0218 17.4405 63.7939 17.4712 63.5745 17.5354C63.4492 17.5693 63.3335 17.6317 63.2365 17.7179C63.1824 17.7629 63.1376 17.818 63.1046 17.8802C63.0697 17.9409 63.0457 18.0072 63.0337 18.0762C62.9903 18.3246 63.0384 18.5804 63.1689 18.7961C63.2906 18.9911 63.445 19.1638 63.6252 19.3065C63.971 19.5696 64.3598 19.7709 64.7744 19.9014C65.1758 20.0385 65.5871 20.1447 66.0047 20.2191L65.9607 19.9487C65.7014 20.1227 65.4582 20.3195 65.234 20.5368C64.9985 20.7536 64.7856 20.9937 64.5986 21.2534C64.4158 21.5143 64.2712 21.8 64.1693 22.1018C64.0687 22.4019 64.0273 22.7188 64.0477 23.0347C64.0695 22.7261 64.1426 22.4234 64.264 22.139C64.3891 21.8591 64.5517 21.5976 64.7473 21.3616C64.9379 21.1242 65.1532 20.9078 65.3895 20.716C65.6216 20.5224 65.8718 20.3515 66.1365 20.2056L66.4745 20.0265L66.0824 19.942C65.6797 19.8565 65.2833 19.7436 64.896 19.604C64.5304 19.469 64.1882 19.2774 63.882 19.0361C63.7327 18.9413 63.6108 18.809 63.5283 18.6525C63.4459 18.496 63.4059 18.3206 63.4122 18.1438C63.4426 17.8633 63.8922 17.8058 64.2809 17.772C64.6696 17.7382 65.0955 17.772 65.5078 17.7957C65.9202 17.8193 66.3325 17.8497 66.7415 17.9004C67.5591 17.9709 68.3608 18.1681 69.1177 18.4852Z" fill="#263238"/>
<path d="M75.5228 38.0621C72.9168 37.2442 65.6768 35.9564 65.0448 34.53C64.4127 33.1037 65.3828 26.08 65.3828 26.08L54.9251 24.674C54.9251 24.674 53.9347 36.6121 57.1795 40.1611C60.4243 43.7101 69.2934 42.9699 72.7647 42.2229C76.236 41.4759 79.8593 39.4276 75.5228 38.0621Z" fill="#00B87C"/>
<path d="M54.9251 24.674C54.9251 24.674 53.9347 36.6155 57.1795 40.1611C57.3222 40.3194 57.477 40.4664 57.6426 40.6005C61.195 43.6425 70.5339 43.7 73.8666 42.9868C76.0872 42.5068 77.2736 40.7459 77.4967 39.7251C77.6285 39.1505 77.0979 38.5725 75.5329 38.079C72.9269 37.2645 65.687 35.9733 65.0549 34.5469C64.4229 33.1206 65.3929 26.0969 65.3929 26.0969L54.9251 24.674Z" fill="#00B87C"/>
<g opacity="0.1">
<path opacity="0.1" d="M77.2266 38.9407V40.411C77.1009 40.6614 76.9515 40.8991 76.7804 41.1208C76.7066 41.2196 76.6276 41.3143 76.5438 41.4048V38.4675C76.7975 38.5838 77.0287 38.744 77.2266 38.9407Z" fill="black"/>
<path opacity="0.1" d="M75.4283 38.0383V42.3411C75.3336 42.4019 75.2356 42.456 75.1342 42.5101V37.9504L75.4283 38.0383Z" fill="black"/>
<path opacity="0.1" d="M74.0223 37.653V42.9258L73.8601 42.963C73.7012 42.9968 73.5221 43.0306 73.3395 43.061V37.4806L74.0223 37.653Z" fill="black"/>
<path opacity="0.1" d="M72.224 37.2102V43.213H72.1902L71.9299 43.2367V37.1527L72.224 37.2102Z" fill="black"/>
<path opacity="0.1" d="M70.8146 36.8587V43.3112C70.5915 43.3112 70.365 43.3281 70.1386 43.3314V36.683L70.5983 36.8013L70.8146 36.8587Z" fill="black"/>
<path opacity="0.1" d="M69.0198 36.3787V43.3415C68.9218 43.3415 68.8238 43.3415 68.7258 43.3415V36.2942L69.0198 36.3787Z" fill="black"/>
<path opacity="0.1" d="M67.6003 35.9495V43.3078C67.3739 43.3078 67.1474 43.2875 66.9243 43.2706V35.7062C67.144 35.7873 67.3705 35.8684 67.6003 35.9495Z" fill="black"/>
<path opacity="0.1" d="M65.5183 35.0267C65.6127 35.0921 65.7109 35.152 65.8124 35.2059V43.1827L65.5183 43.1523V35.0267Z" fill="black"/>
<path opacity="0.1" d="M64.4062 25.9515V43.0137C64.1763 42.9833 63.9499 42.9461 63.7302 42.9089V25.8568L64.4062 25.9515Z" fill="black"/>
<path opacity="0.1" d="M62.6082 25.7046V42.6959L62.3142 42.6283V25.6641L62.6082 25.7046Z" fill="black"/>
<path opacity="0.1" d="M61.2019 25.512V42.3377C60.9687 42.2701 60.7422 42.1957 60.5259 42.118V25.4208L61.2019 25.512Z" fill="black"/>
<path opacity="0.1" d="M59.404 25.2687V41.6719C59.3026 41.6279 59.2045 41.5806 59.1099 41.5333V25.2281L59.404 25.2687Z" fill="black"/>
<path opacity="0.1" d="M57.9941 25.0761V40.8573C57.8724 40.7728 57.7541 40.6782 57.6561 40.5835C57.5363 40.4904 57.4233 40.3887 57.3181 40.2793V24.9814L57.9941 25.0761Z" fill="black"/>
<path opacity="0.1" d="M56.1997 24.8293V38.5724C56.149 38.4541 56.0983 38.3358 56.051 38.2107C56.0036 38.0857 55.9732 38.0147 55.9428 37.9167C55.9274 37.8829 55.915 37.8478 55.9056 37.8119V24.7921L56.1997 24.8293Z" fill="black"/>
<path opacity="0.1" d="M54.7901 27.8544V29.6154C54.7901 29.2774 54.7901 28.9225 54.7901 28.6014C54.7901 28.5033 54.7901 28.4053 54.7901 28.3073C54.7868 28.1484 54.7868 27.9997 54.7901 27.8544Z" fill="black"/>
</g>
<g opacity="0.1">
<path opacity="0.1" d="M75.0936 42.5304C74.7525 42.7022 74.393 42.8348 74.0221 42.9259L73.8599 42.963C73.701 42.9968 73.5219 43.0306 73.3394 43.0611C73.0014 43.1151 72.6329 43.1625 72.2273 43.203H66.1433L65.8053 43.1726L65.5113 43.1422C65.1395 43.105 64.7677 43.0577 64.3993 43.0036C64.1694 42.9732 63.943 42.936 63.7233 42.8988C63.3447 42.8357 62.9729 42.7647 62.6079 42.6859L62.3138 42.6183L61.9082 42.5203L75.0936 42.5304Z" fill="black"/>
<path opacity="0.1" d="M76.7802 41.121C76.7064 41.2197 76.6274 41.3145 76.5436 41.4049H58.8831C58.7074 41.3103 58.5451 41.2156 58.3795 41.1108L76.7802 41.121Z" fill="black"/>
<path opacity="0.1" d="M77.4868 39.7083C77.4655 39.8096 77.4361 39.9091 77.3989 40.0057H57.0615C56.883 39.7948 56.7235 39.5686 56.5849 39.3297H77.4733C77.5118 39.4524 77.5165 39.5832 77.4868 39.7083Z" fill="black"/>
<path opacity="0.1" d="M75.5229 38.0655C75.6716 38.1128 75.8136 38.1601 75.9454 38.2108H56.0507C56.0102 38.1128 55.973 38.0148 55.9426 37.9167H75.0362L75.1511 37.9505L75.4452 38.0384L75.5229 38.0655Z" fill="black"/>
<path opacity="0.1" d="M70.5916 36.8014H55.6013C55.5405 36.5783 55.4864 36.3484 55.4357 36.1254H68.1377C68.327 36.1862 68.523 36.2437 68.7258 36.3011L69.0199 36.3856C69.3849 36.4904 69.7567 36.5918 70.1319 36.6898L70.5916 36.8014Z" fill="black"/>
<path opacity="0.1" d="M65.4879 35.0066H55.2228C55.2228 34.9086 55.1924 34.8105 55.1789 34.7125H65.1499C65.2495 34.8246 65.3631 34.9234 65.4879 35.0066Z" fill="black"/>
<path opacity="0.1" d="M64.8454 33.5971H55.0433C55.0197 33.3707 54.996 33.1442 54.9757 32.9211H64.8285C64.8183 33.1611 64.8285 33.3876 64.8454 33.5971Z" fill="black"/>
<path opacity="0.1" d="M64.8421 31.5049C64.8421 31.6029 64.8421 31.7009 64.8421 31.7989H54.8745C54.8745 31.7009 54.8745 31.6029 54.8745 31.5049H64.8421Z" fill="black"/>
<path opacity="0.1" d="M64.9673 29.7101C64.947 29.9365 64.9268 30.163 64.9099 30.3861H54.8104C54.8104 30.1562 54.8104 29.9264 54.8104 29.7101H64.9673Z" fill="black"/>
<path opacity="0.1" d="M65.1023 28.3007C65.1023 28.3953 65.0854 28.4933 65.0752 28.5947H54.7831C54.7831 28.4967 54.7831 28.3987 54.7831 28.3007H65.1023Z" fill="black"/>
<path opacity="0.1" d="M65.3222 26.5059C65.2951 26.685 65.2647 26.9182 65.2309 27.1819H54.8036C54.8036 26.9419 54.8036 26.712 54.8239 26.5059H65.3222Z" fill="black"/>
<path opacity="0.1" d="M60.2994 25.3905H54.8914C54.8914 25.2823 54.8914 25.1809 54.8914 25.0964H58.1362L59.0995 25.2283L59.3936 25.2688L60.2994 25.3905Z" fill="black"/>
</g>
<path d="M55.6753 26.8947C56.0539 26.8947 56.4291 26.9623 56.8042 26.9961C57.1794 27.0299 57.5546 27.0806 57.9264 27.1313C58.6452 27.2304 59.364 27.3363 60.0828 27.449L62.2359 27.787C62.9795 27.9053 63.74 27.9864 64.4701 28.1655C64.4742 28.164 64.4786 28.1635 64.4829 28.1641C64.4872 28.1646 64.4913 28.1662 64.4949 28.1687C64.4985 28.1712 64.5014 28.1745 64.5035 28.1784C64.5055 28.1822 64.5065 28.1865 64.5065 28.1909C64.5065 28.1952 64.5055 28.1995 64.5035 28.2034C64.5014 28.2073 64.4985 28.2106 64.4949 28.2131C64.4913 28.2156 64.4872 28.2172 64.4829 28.2177C64.4786 28.2183 64.4742 28.2178 64.4701 28.2162C63.7197 28.1791 62.966 28.0439 62.2224 27.9458C61.4788 27.8478 60.7555 27.7566 60.022 27.6552C59.2885 27.5538 58.5551 27.4557 57.8216 27.3408C57.4633 27.2867 57.1051 27.2259 56.7502 27.1549C56.3953 27.0839 56.0201 27.0468 55.6719 26.942C55.6348 26.9318 55.6517 26.8947 55.6753 26.8947Z" fill="#263238"/>
<path d="M80.637 41.4556C84.0339 46.6507 90.4626 51.7342 93.7074 51.3218C96.7494 50.9331 104.185 43.2335 106.389 38.4068C106.873 37.3557 99.2337 33.6546 98.5543 34.6888C96.959 37.1055 93.1869 42.3952 91.7943 42.5744C90.5471 42.7332 86.2478 40.3977 82.4588 38.0283C77.8451 35.1519 79.285 39.3837 80.637 41.4556Z" fill="#D3766A"/>
<path d="M105.794 39.0965C104.929 39.7725 98.652 36.2471 98.4864 35.1351C98.4666 34.76 98.4961 34.3838 98.5743 34.0163C98.2488 32.4938 97.7022 31.0271 96.9519 29.6629C96.0055 28.0675 94.4135 25.8063 95.2619 25.2689C96.4821 24.4746 98.8379 27.0907 100.099 28.6759C100.511 27.6619 100.964 26.8169 101.407 26.4249C102.877 25.1236 109.519 30.9507 109.181 32.9178C108.853 34.814 106.663 38.4272 105.794 39.0965Z" fill="#D3766A"/>
<path d="M92.5614 12.6583L92.0968 12.9417L125.13 67.1018L125.595 66.8184L92.5614 12.6583Z" fill="#263238"/>
<path d="M99.541 28.8787C99.9128 29.8285 100.819 28.8449 100.819 28.8449C100.819 28.8449 99.852 30.5754 100.616 31.4069C101.38 32.2384 102.407 30.981 102.482 30.8965C102.434 30.9878 101.586 32.5865 102.438 33.3572C103.289 34.1278 104.172 32.7319 104.226 32.6406C104.205 32.742 103.962 34.0906 104.739 34.5199C106.075 35.2534 106.798 31.8159 107.859 31.1906C107.859 31.1906 109.133 32.8806 109.181 32.911C109.228 32.9414 109.938 29.6595 109.005 28.2737C108.873 28.0703 108.675 27.9183 108.444 27.8427C108.214 27.7671 107.965 27.7725 107.738 27.8579C107.738 27.8579 108.096 26.8439 107.443 26.2186C107.105 25.9043 106.304 26.1578 106.304 26.1578C106.374 25.9212 106.377 25.6701 106.314 25.4318C106.251 25.1936 106.123 24.9771 105.946 24.8058C105.456 24.3934 104.726 24.7145 104.726 24.7145C104.726 24.7145 104.598 23.8053 103.962 23.5484C102.681 23.0347 98.7467 26.8405 99.541 28.8787Z" fill="#D3766A"/>
<path d="M104.601 24.7584C104.601 24.7584 104.601 24.7246 104.601 24.7314C102.933 25.6988 101.6 27.1513 100.778 28.8955C100.754 28.9496 100.832 29.0138 100.873 28.9564C101.906 27.3845 103.162 25.9706 104.601 24.7584Z" fill="#263238"/>
<path d="M106.318 26.1307C106.335 26.1307 106.318 26.0901 106.291 26.1003C104.468 27.1873 103.094 28.8893 102.414 30.8999C102.394 30.9708 102.444 31.0553 102.475 30.9776C102.992 29.6324 104.946 27.2495 106.318 26.1307Z" fill="#263238"/>
<path d="M104.233 32.786C104.909 30.8256 106.163 29.2809 107.667 27.8782C107.687 27.8782 107.667 27.8343 107.64 27.8478C106.713 28.3311 105.848 29.3249 105.24 30.1563C104.655 30.9224 104.284 31.8298 104.165 32.786C104.158 32.813 104.216 32.8401 104.233 32.786Z" fill="#263238"/>
<path d="M100.785 28.855C100.754 28.9192 100.886 28.8888 100.859 28.9564C100.744 29.2437 100.2 31.0283 100.748 31.4035C101.19 31.7009 101.9 31.3156 102.1 31.0655L102.651 30.4199L102.37 31.2108C102.24 31.5594 102.169 31.9273 102.16 32.2992C102.146 32.4714 102.169 32.6447 102.227 32.8073C102.286 32.97 102.378 33.1183 102.498 33.2422C102.61 33.3569 102.758 33.4301 102.917 33.4497C103.076 33.4694 103.237 33.4343 103.374 33.3504C103.674 33.1519 103.919 32.8811 104.087 32.5628L104.577 31.7009L104.395 32.671C104.345 32.9418 104.329 33.2177 104.347 33.4923C104.357 33.753 104.441 34.0053 104.591 34.219C104.663 34.3112 104.759 34.3815 104.869 34.4221C104.979 34.4626 105.098 34.4719 105.213 34.4489C105.463 34.3588 105.682 34.1993 105.845 33.9892C106.202 33.5392 106.524 33.0623 106.808 32.5628C106.96 32.3161 107.112 32.0694 107.278 31.826C107.427 31.5743 107.629 31.3576 107.869 31.1906C107.653 31.3802 107.475 31.6097 107.345 31.8666C107.2 32.1167 107.068 32.3736 106.936 32.6338C106.682 33.1633 106.379 33.668 106.031 34.1413C105.846 34.4001 105.59 34.5997 105.294 34.7159C105.125 34.7611 104.947 34.756 104.781 34.7014C104.616 34.6468 104.47 34.5449 104.361 34.4083C104.162 34.1512 104.044 33.8405 104.023 33.516C103.998 33.2113 104.011 32.9046 104.063 32.6034L104.374 32.7116C104.182 33.0905 103.894 33.4131 103.54 33.6478C103.339 33.7747 103.099 33.8251 102.864 33.7898C102.635 33.7529 102.424 33.6467 102.259 33.4856C102.107 33.3279 101.99 33.1396 101.917 32.9331C101.845 32.7267 101.817 32.5071 101.836 32.2891C101.851 31.881 101.932 31.478 102.076 31.0959L102.333 31.2446C102.049 31.559 101.319 32.0761 100.562 31.6976C99.6796 31.0655 100.592 29.1862 100.785 28.855Z" fill="#263238"/>
<path d="M100.819 28.8448C100.65 28.9691 100.463 29.0671 100.265 29.1355C100.185 29.1638 100.099 29.1706 100.016 29.1552C99.9331 29.1397 99.8555 29.1026 99.7914 29.0476C99.6701 28.9053 99.5906 28.7321 99.5615 28.5474C99.5244 28.348 99.4906 28.1316 99.4703 27.9086C99.3787 28.1218 99.3349 28.3526 99.3418 28.5846C99.3353 28.8349 99.4276 29.0777 99.5987 29.2606C99.7031 29.3514 99.8329 29.4081 99.9705 29.4228C100.1 29.4325 100.23 29.4056 100.346 29.3451C100.552 29.2324 100.718 29.0573 100.819 28.8448Z" fill="#263238"/>
<path d="M81.6845 37.5179C84.1282 38.7347 90.2393 42.8312 91.6893 42.2499C93.1393 41.6685 97.3035 35.9259 97.3035 35.9259L105.818 42.1485C105.818 42.1485 98.2499 51.4367 93.4503 51.7375C88.6507 52.0384 82.7796 45.3527 80.782 42.4054C78.7844 39.458 77.615 35.4899 81.6845 37.5179Z" fill="#00B87C"/>
<g opacity="0.1">
<path opacity="0.1" d="M105.818 42.1417C105.818 42.1417 105.703 42.2837 105.48 42.5304L105.372 42.6588V41.824L105.818 42.1417Z" fill="black"/>
<path opacity="0.1" d="M104.273 41.0128V43.9162L103.979 44.2374V40.7965L104.273 41.0128Z" fill="black"/>
<path opacity="0.1" d="M102.864 39.9818V45.4135L102.546 45.7346C102.429 45.8563 102.307 45.978 102.181 46.0996V39.485L102.864 39.9818Z" fill="black"/>
<path opacity="0.1" d="M101.062 38.6703V47.1643L100.768 47.4347V38.4574L101.062 38.6703Z" fill="black"/>
<path opacity="0.1" d="M99.6593 37.6396V48.4117L99.0103 48.9389C98.9977 48.946 98.9862 48.9552 98.9765 48.966V37.136L99.6593 37.6396Z" fill="black"/>
<path opacity="0.1" d="M97.5791 36.1199H97.5671V36.1118L97.5791 36.1199Z" fill="black"/>
<path opacity="0.1" d="M97.8611 36.8014V49.7975L97.5671 49.9969V36.8149L97.8611 36.8014Z" fill="black"/>
<path opacity="0.1" d="M96.4552 37.0583V50.7L96.3673 50.7507C96.178 50.8544 95.9887 50.9524 95.7994 51.0448H95.7724V37.9169H95.7961L96.4552 37.0583Z" fill="black"/>
<path opacity="0.1" d="M94.6569 39.333V51.501C94.5588 51.5348 94.4608 51.5618 94.3628 51.5855V39.6845L94.6569 39.333Z" fill="black"/>
<path opacity="0.1" d="M93.2509 40.9352V51.7512C93.0252 51.757 92.7994 51.748 92.5749 51.7241V41.6112L92.7844 41.4151L93.0785 41.1211L93.2509 40.9352Z" fill="black"/>
<path opacity="0.1" d="M91.4527 42.2938V51.4942C91.3547 51.4705 91.2567 51.4401 91.1587 51.4063V42.2803C91.256 42.2947 91.3545 42.2992 91.4527 42.2938Z" fill="black"/>
<path opacity="0.1" d="M90.0431 41.9863V50.9703C89.8843 50.896 89.7288 50.8182 89.5699 50.7371L89.3604 50.6255V41.7091C89.6004 41.8139 89.8268 41.9119 90.0431 41.9863Z" fill="black"/>
<path opacity="0.1" d="M88.2484 41.1785V49.9665L87.9543 49.7671V41.0264L88.1369 41.121L88.2484 41.1785Z" fill="black"/>
<path opacity="0.1" d="M86.8389 40.428V48.9287C86.609 48.7462 86.3792 48.5569 86.1629 48.3643V40.0427C86.3826 40.1745 86.6124 40.303 86.8389 40.428Z" fill="black"/>
<path opacity="0.1" d="M85.0443 39.4074V47.3605L84.7502 47.0766V39.235L84.899 39.3229L85.0443 39.4074Z" fill="black"/>
<path opacity="0.1" d="M83.6347 38.5893V45.9273L83.459 45.7346C83.2832 45.5453 83.121 45.3561 82.952 45.1702V38.1938H82.9824L83.6347 38.5893Z" fill="black"/>
<path opacity="0.1" d="M81.8365 37.5855V43.8216C81.7318 43.6932 81.6337 43.5648 81.5425 43.4431V37.4402L81.6844 37.5078L81.8365 37.5855Z" fill="black"/>
<path opacity="0.1" d="M80.444 37.0278V41.8375C80.3595 41.6989 80.275 41.557 80.1939 41.415L80.0317 41.121C79.937 40.9452 79.8458 40.783 79.7613 40.5937V36.9669C79.9906 36.9449 80.2221 36.9655 80.444 37.0278Z" fill="black"/>
</g>
<g opacity="0.1">
<path opacity="0.1" d="M96.3672 50.7371C96.178 50.8407 95.9887 50.9387 95.7994 51.0311H90.1751L90.0433 50.9703C89.8844 50.8959 89.7289 50.8182 89.5701 50.7371H96.3672Z" fill="black"/>
<path opacity="0.1" d="M99.0103 48.939C98.9977 48.9461 98.9862 48.9552 98.9765 48.966C98.6892 49.1925 98.3986 49.4122 98.1079 49.6217H87.7617C87.4541 49.4054 87.1499 49.1756 86.8525 48.9457L99.0103 48.939Z" fill="black"/>
<path opacity="0.1" d="M100.67 47.5295L100.332 47.8236H85.5445L85.2267 47.5295H100.67Z" fill="black"/>
<path opacity="0.1" d="M102.546 45.7347C102.429 45.8564 102.307 45.9781 102.181 46.0998L101.843 46.4175H84.0977C83.9389 46.2553 83.7868 46.0795 83.6347 45.9274L83.4589 45.7347H102.546Z" fill="black"/>
<path opacity="0.1" d="M103.898 44.3253L103.621 44.6194H82.4721C82.3876 44.5214 82.3065 44.42 82.2288 44.3253H103.898Z" fill="black"/>
<path opacity="0.1" d="M105.493 42.5305L105.385 42.659L104.902 43.2133H81.3702C81.1876 42.9699 81.0322 42.7401 80.8801 42.5373L105.493 42.5305Z" fill="black"/>
<path opacity="0.1" d="M88.7286 41.4151H80.1805L80.0183 41.1211H88.1303L88.2418 41.1786L88.7286 41.4151Z" fill="black"/>
<path opacity="0.1" d="M104.824 41.4151H92.7778L93.0719 41.1211H104.422L104.824 41.4151Z" fill="black"/>
<path opacity="0.1" d="M86.0886 40.0056H79.4808C79.3834 39.7849 79.2976 39.5593 79.2239 39.3296H84.8989L85.0442 39.4141L86.0886 40.0056Z" fill="black"/>
<path opacity="0.1" d="M102.894 40.0056H94.106L94.3764 39.6676L94.6705 39.3296H101.975L102.194 39.4918L102.87 39.9887L102.894 40.0056Z" fill="black"/>
<path opacity="0.1" d="M82.9826 38.2109H78.9773C78.969 38.1131 78.969 38.0147 78.9773 37.9169H82.4587C82.6175 38.0014 82.7967 38.096 82.9589 38.194L82.9826 38.2109Z" fill="black"/>
<path opacity="0.1" d="M100.44 38.2109H95.5627L95.7723 37.9473V37.9169H100.048L100.44 38.2109Z" fill="black"/>
<path opacity="0.1" d="M97.5672 36.1187V36.7947H96.6478C96.8709 36.5006 97.0433 36.264 97.1582 36.1187H97.5672Z" fill="black"/>
</g>
<path d="M103.726 43.2301C103.455 42.9698 103.137 42.7602 102.843 42.5236C102.549 42.287 102.245 42.064 101.941 41.8476C101.356 41.4184 100.761 40.9959 100.166 40.5801L98.3817 39.3295C97.7666 38.9003 97.1582 38.4305 96.5092 38.0519C96.5034 38.0491 96.4968 38.0484 96.4905 38.0501C96.4843 38.0517 96.4788 38.0555 96.4752 38.0608C96.4715 38.0662 96.4698 38.0726 96.4705 38.079C96.4712 38.0854 96.4741 38.0914 96.4788 38.0958C97.0466 38.5893 97.6821 39.0118 98.2837 39.4478L100.072 40.766C100.67 41.2054 101.268 41.6381 101.873 42.0673C102.171 42.2769 102.472 42.4797 102.776 42.6791C103.08 42.8785 103.377 43.105 103.702 43.2706C103.729 43.2875 103.746 43.2639 103.726 43.2301Z" fill="#263238"/>
<path d="M89.3844 50.6356C85.7373 48.6651 82.2356 44.5516 80.7924 42.4053C79.5249 40.5193 78.5819 38.2175 79.1294 37.3353C79.3491 36.9703 79.8054 36.8419 80.6268 37.0818L89.3844 50.6356Z" fill="#263238"/>
<path d="M88.9381 61.9351C88.6474 62.3001 67.9821 63.7974 67.8773 63.6758C67.5664 63.3547 70.9666 41.8748 75.2761 37.8728C76.2056 37.0143 79.9845 36.8588 80.5185 37.0312C81.1202 37.2137 82.9792 39.9042 83.8985 42.1384C85.7406 46.6101 89.1882 61.6106 88.9381 61.9351Z" fill="#00B87C"/>
<g opacity="0.1">
<path opacity="0.1" d="M88.2486 58.0886V62.0804L87.9546 62.121V56.7839C87.9816 56.909 88.012 57.0341 88.0391 57.1557C88.0661 57.2774 88.083 57.3552 88.1033 57.4498C88.154 57.6627 88.2182 57.8791 88.2486 58.0886Z" fill="black"/>
<path opacity="0.1" d="M86.5619 51.0379C86.6566 51.3996 86.7478 51.7646 86.8391 52.1263V62.2663L86.1631 62.3373V49.4933C86.1631 49.5406 86.1901 49.5913 86.2003 49.6386C86.2994 50.0059 86.3974 50.3777 86.4943 50.754C86.5281 50.8351 86.5281 50.9332 86.5619 51.0379Z" fill="black"/>
<path opacity="0.1" d="M84.7672 44.616C84.8585 44.9033 84.9531 45.2041 85.0444 45.5151V62.415L84.8585 62.4319H84.7503V44.5619C84.7577 44.5793 84.7634 44.5974 84.7672 44.616Z" fill="black"/>
<path opacity="0.1" d="M83.6348 41.5435V62.5536L82.9588 62.611V40.2219C83.1278 40.5194 83.2968 40.8236 83.4388 41.1244C83.4883 41.2235 83.5357 41.3216 83.5807 41.4184C83.6013 41.459 83.6194 41.5007 83.6348 41.5435Z" fill="black"/>
<path opacity="0.1" d="M81.6642 38.2108C81.7217 38.2886 81.7791 38.3663 81.8366 38.4508V62.7091L81.5425 62.7327V38.0587L81.6642 38.2108Z" fill="black"/>
<path opacity="0.1" d="M80.4441 37.0143V62.824L79.7681 62.8781V36.9704C79.9943 36.9663 80.2204 36.981 80.4441 37.0143Z" fill="black"/>
<path opacity="0.1" d="M78.6325 37.0144V62.966L78.3384 62.9897V37.0381L78.6325 37.0144Z" fill="black"/>
<path opacity="0.1" d="M77.2264 37.1801V63.0742L76.5504 63.1249V37.322C76.76 37.2679 76.9898 37.2206 77.2264 37.1801Z" fill="black"/>
<path opacity="0.1" d="M75.4282 37.7546V63.206L75.1342 63.2263V38.0115C75.1651 37.9772 75.1978 37.9445 75.2322 37.9135C75.246 37.898 75.2606 37.8833 75.2761 37.8696C75.3235 37.827 75.3744 37.7886 75.4282 37.7546Z" fill="black"/>
<path opacity="0.1" d="M74.0223 39.546V63.304L73.3463 63.3514V40.8777C73.4882 40.5702 73.6336 40.2795 73.7755 40.0057C73.8499 39.8502 73.9344 39.6981 74.0223 39.546Z" fill="black"/>
<path opacity="0.1" d="M72.2239 43.6459V63.4358L71.9299 63.4561V44.5044L71.9907 44.3253C72.0651 44.0954 72.1428 43.869 72.2239 43.6459Z" fill="black"/>
<path opacity="0.1" d="M70.8145 48.2394V63.544L70.4326 63.5677L70.1317 63.588V50.744H70.1757C70.2669 50.3722 70.3582 50.0004 70.4528 49.6286C70.5103 49.4021 70.5678 49.1723 70.6286 48.9526C70.6894 48.7329 70.7503 48.4726 70.8145 48.2394Z" fill="black"/>
<path opacity="0.1" d="M69.0198 56.0471V63.6386L68.7257 63.6555V57.5715C68.7257 57.5242 68.7257 57.4735 68.7528 57.4228C68.7798 57.3721 68.79 57.2267 68.8069 57.1287C68.8745 56.784 68.9522 56.4223 69.0198 56.0471Z" fill="black"/>
</g>
<g opacity="0.1">
<path opacity="0.1" d="M70.4327 63.5438L70.1319 63.5641L69.0198 63.6283L68.7258 63.6452C68.4437 63.6698 68.1603 63.6766 67.8774 63.6655C67.8774 63.6655 67.8774 63.6114 67.8774 63.5438H70.4327Z" fill="black"/>
<path opacity="0.1" d="M88.9383 61.935C88.7214 62.0167 88.4936 62.0657 88.2623 62.0803L87.9682 62.1209L86.8528 62.2493L86.1768 62.3203L85.0648 62.4251L84.8789 62.442H67.9384C67.962 62.2358 67.9924 62.0094 68.0296 61.766H88.9315C88.9481 61.8208 88.9504 61.879 88.9383 61.935Z" fill="black"/>
<path opacity="0.1" d="M88.7727 60.6439H68.2054C68.2054 60.5493 68.2358 60.4513 68.2493 60.3499H88.7186C88.7389 60.4513 88.7592 60.5493 88.7727 60.6439Z" fill="black"/>
<path opacity="0.1" d="M88.4953 59.2378H68.4316C68.4722 59.0181 68.5094 58.7882 68.5533 58.5618H88.35C88.4007 58.7916 88.4514 59.0214 88.4953 59.2378Z" fill="black"/>
<path opacity="0.1" d="M88.1031 57.4396H68.7526C68.7695 57.3449 68.7897 57.2435 68.8066 57.1455H88.0388C88.0625 57.2469 88.0828 57.3449 88.1031 57.4396Z" fill="black"/>
<path opacity="0.1" d="M87.7856 56.0303H69.0233C69.0672 55.8072 69.1111 55.5773 69.1585 55.3542H87.6234C87.6775 55.5773 87.7316 55.8072 87.7856 56.0303Z" fill="black"/>
<path opacity="0.1" d="M87.3563 54.2353H69.3882L69.4491 53.9413H87.2887C87.3124 54.0393 87.336 54.1373 87.3563 54.2353Z" fill="black"/>
<path opacity="0.1" d="M87.0151 52.8258H69.6926C69.7433 52.5993 69.794 52.3729 69.848 52.1498H86.8461C86.9035 52.3898 86.9576 52.5993 87.0151 52.8258Z" fill="black"/>
<path opacity="0.1" d="M86.5621 51.0378H70.1049C70.1049 51.0007 70.1252 50.9635 70.1319 50.9297V50.7438H86.4877C86.5283 50.835 86.5283 50.9331 86.5621 51.0378Z" fill="black"/>
<path opacity="0.1" d="M86.1904 49.6217H70.4531C70.5106 49.3952 70.568 49.1654 70.6289 48.9457H86.0112C86.0619 49.1214 86.1093 49.304 86.1566 49.4831C86.1701 49.5237 86.1904 49.5744 86.1904 49.6217Z" fill="black"/>
<path opacity="0.1" d="M85.7101 47.8234H70.9294C70.9519 47.7242 70.979 47.6262 71.0105 47.5293H85.629C85.6527 47.6273 85.6831 47.7253 85.7101 47.8234Z" fill="black"/>
<path opacity="0.1" d="M85.3115 46.4175H71.3183C71.3859 46.1876 71.4569 45.9578 71.5279 45.7415H85.1019L85.3115 46.4175Z" fill="black"/>
<path opacity="0.1" d="M84.7672 44.6158H71.8928C71.9031 44.5769 71.9155 44.5385 71.9299 44.5009L71.9908 44.3218H84.6759C84.6996 44.3995 84.7266 44.4773 84.7503 44.5584C84.7579 44.5769 84.7636 44.5961 84.7672 44.6158Z" fill="black"/>
<path opacity="0.1" d="M84.3041 43.2131H72.3794C72.4639 42.9833 72.5484 42.7534 72.6397 42.5371H84.0539C84.1351 42.7399 84.2162 42.9697 84.3041 43.2131Z" fill="black"/>
<path opacity="0.1" d="M83.5741 41.415H73.0961C73.1366 41.3136 73.1806 41.2156 73.2245 41.121H83.4321C83.4839 41.2201 83.5313 41.3181 83.5741 41.415Z" fill="black"/>
<path opacity="0.1" d="M82.8304 40.0055H73.7652C73.8497 39.85 73.9342 39.6979 74.0187 39.5526C74.0627 39.4749 74.1066 39.3971 74.1539 39.3228H82.418C82.5566 39.5458 82.6952 39.7723 82.8304 40.0055Z" fill="black"/>
<path opacity="0.1" d="M81.6645 38.2108H74.9518C75.0126 38.1398 75.0735 38.0756 75.1343 38.0148C75.1653 37.9804 75.198 37.9477 75.2323 37.9167H81.4583L81.5597 38.0519L81.6645 38.2108Z" fill="black"/>
</g>
<path d="M79.2443 42.0133L80.069 40.276L81.3804 41.5198L81.1776 42.8617L79.9845 43.1017L79.2443 42.0133Z" fill="#263238"/>
<path d="M79.9843 43.1017C79.9843 43.1017 80.3798 51.6768 83.5029 55.1007C86.5753 58.4807 91.3952 57.7743 91.3952 57.7743L95.3971 55.8883L92.0949 53.5223C92.0949 53.5223 88.4479 53.5223 86.1258 51.7342C83.8037 49.9462 81.1775 42.855 81.1775 42.855L79.9843 43.1017Z" fill="#263238"/>
<path d="M80.3057 39.8129C79.2477 40.2827 77.0372 38.9443 76.0334 37.7139C75.9658 37.6294 75.9252 36.6154 75.817 35.3817C75.7494 34.6348 75.6582 33.8033 75.5162 33.0529C75.4892 32.8974 80.4476 33.3199 80.4476 33.3199C80.3524 34.311 80.3796 35.31 80.5288 36.2943C80.5479 36.3973 80.5774 36.4981 80.6166 36.5952C80.6233 36.6117 80.6289 36.6286 80.6335 36.6459C80.8363 37.2137 81.3264 39.3634 80.3057 39.8129Z" fill="#D3766A"/>
<path d="M80.6334 36.6459C80.4768 36.6971 80.3163 36.7355 80.1535 36.7608C77.6692 37.1799 76.2192 34.3035 75.7122 33.0225C76.6011 32.9921 80.4442 33.3199 80.4442 33.3199C80.3489 34.311 80.3761 35.31 80.5253 36.2943C80.5444 36.3973 80.5739 36.4981 80.6132 36.5952C80.6209 36.6116 80.6277 36.6286 80.6334 36.6459Z" fill="#263238"/>
<path d="M74.0221 27.2798C73.6841 29.0307 75.1443 33.81 76.4726 34.7632C78.3925 36.1422 81.2621 35.9698 82.364 33.7221C83.4354 31.542 81.4379 25.3465 79.998 24.5116C77.8213 23.2779 74.4818 24.6975 74.0221 27.2798Z" fill="#D3766A"/>
<path d="M78.3789 29.8927C78.3789 29.8927 78.3586 29.913 78.3789 29.9265C78.4837 30.2476 78.5513 30.6295 78.291 30.8256C78.291 30.8256 78.291 30.8459 78.291 30.8256C78.6257 30.6836 78.531 30.1766 78.3789 29.8927Z" fill="#263238"/>
<path d="M77.9937 29.6391C77.463 29.754 77.73 30.8086 78.2235 30.7004C78.717 30.5923 78.4365 29.5445 77.9937 29.6391Z" fill="#263238"/>
<path d="M80.3461 29.3282C80.3461 29.3282 80.3732 29.3282 80.3765 29.3485C80.4509 29.6865 80.5895 30.0245 80.9106 30.0752V30.0955C80.5422 30.1361 80.363 29.6493 80.3461 29.3282Z" fill="#263238"/>
<path d="M80.549 28.9124C81.0627 28.74 81.3737 29.781 80.887 29.9264C80.4002 30.0717 80.1062 29.0679 80.549 28.9124Z" fill="#263238"/>
<path d="M77.4529 29.2641C77.5814 29.1889 77.7055 29.1065 77.8247 29.0173C77.9666 28.9193 78.0883 28.8585 78.1627 28.6793C78.1752 28.6305 78.1719 28.5788 78.153 28.532C78.1342 28.4852 78.1008 28.4456 78.0579 28.4191C77.9636 28.3818 77.8612 28.3701 77.761 28.3849C77.6607 28.3997 77.5661 28.4407 77.4867 28.5036C77.3076 28.609 77.173 28.776 77.1081 28.9734C77.0931 29.0194 77.0922 29.0689 77.1055 29.1155C77.1188 29.162 77.1456 29.2036 77.1827 29.2348C77.2197 29.266 77.2652 29.2855 77.3133 29.2907C77.3614 29.2959 77.41 29.2866 77.4529 29.2641Z" fill="#263238"/>
<path d="M80.8194 28.2803C80.672 28.2888 80.5241 28.2888 80.3766 28.2803C80.219 28.3015 80.0588 28.2707 79.9203 28.1925C79.8824 28.1592 79.8564 28.1145 79.846 28.0651C79.8356 28.0158 79.8416 27.9644 79.8629 27.9187C79.9203 27.8346 79.9991 27.7674 80.0913 27.724C80.1834 27.6806 80.2854 27.6626 80.3868 27.6719C80.5947 27.6607 80.7995 27.7269 80.9614 27.8578C80.9964 27.8896 81.0213 27.9309 81.0333 27.9767C81.0452 28.0224 81.0435 28.0706 81.0284 28.1155C81.0134 28.1603 80.9856 28.1997 80.9485 28.229C80.9114 28.2583 80.8665 28.2761 80.8194 28.2803Z" fill="#263238"/>
<path d="M78.9366 32.9246C79.0308 33.0048 79.1509 33.0481 79.2746 33.0463C79.3981 33.0148 79.5133 32.9571 79.6126 32.8773C79.6126 32.8773 79.6363 32.8773 79.6295 32.8773C79.5997 32.9533 79.5495 33.0197 79.4846 33.0691C79.4196 33.1186 79.3423 33.1493 79.2611 33.1579C79.1888 33.1591 79.1179 33.1385 79.0576 33.0987C78.9972 33.0588 78.9504 33.0017 78.9231 32.9348C78.9231 32.9348 78.9231 32.9179 78.9366 32.9246Z" fill="#263238"/>
<path d="M79.0313 31.8632C79.1467 31.971 79.2832 32.0536 79.4321 32.106C79.581 32.1583 79.7392 32.1793 79.8966 32.1674C80.0352 32.1592 80.1719 32.1307 80.3022 32.0829L80.3732 32.0559L80.4442 32.0255C80.4604 32.0177 80.4737 32.0051 80.4822 31.9893C80.4907 31.9735 80.494 31.9554 80.4915 31.9376C80.493 31.9264 80.493 31.915 80.4915 31.9038V31.8734C80.4374 31.6199 80.3124 31.2447 80.3124 31.2447C80.4171 31.2683 80.9377 31.3596 80.8971 31.2447C80.5787 30.1201 80.1472 29.0307 79.6093 27.9931C79.5924 27.9627 79.5383 27.9931 79.5519 28.0168C79.8392 29.0578 80.309 30.0448 80.6165 31.0824C80.4306 31.0471 80.2406 31.038 80.0521 31.0554C80.0183 31.0757 80.2988 31.7787 80.3157 31.8936C80.1151 31.9662 79.902 31.998 79.689 31.9869C79.476 31.9759 79.2673 31.9223 79.0753 31.8294C79.0246 31.8125 79.0043 31.8429 79.0313 31.8632Z" fill="#263238"/>
<path d="M80.1231 32.0356C80.0221 32.2458 79.8684 32.4263 79.677 32.5595C79.5712 32.6298 79.4455 32.6642 79.3187 32.6576C79.0415 32.6576 78.9807 32.4041 78.9807 32.1877C78.9846 32.0733 79.0028 31.9597 79.0348 31.8497C79.3678 32.0279 79.7498 32.0932 80.1231 32.0356Z" fill="#263238"/>
<path d="M79.677 32.5595C79.5712 32.6298 79.4455 32.6641 79.3187 32.6575C79.0415 32.6575 78.9807 32.404 78.9807 32.1877C79.1217 32.1614 79.2675 32.1839 79.394 32.2515C79.5205 32.3191 79.6203 32.4277 79.677 32.5595Z" fill="#D3766A"/>
<path d="M81.1879 25.9786C79.8122 27.6686 76.9189 26.587 76.9189 26.587C76.8839 27.0065 76.7148 27.4036 76.4366 27.7195C76.1584 28.0354 75.786 28.2534 75.3743 28.3412C75.3743 28.3412 75.9016 31.363 75.1309 31.586C73.9547 31.924 72.4066 28.0506 72.5452 27.1582C72.6838 26.2659 73.6167 25.7691 73.6167 25.7691C73.5882 25.2619 73.751 24.7626 74.073 24.3697C74.6915 23.5146 77.7031 23.5214 77.7031 23.5214C77.7522 23.1037 77.898 22.7033 78.129 22.3519C78.1839 22.2654 78.2558 22.191 78.3404 22.1332C78.4249 22.0753 78.5203 22.0352 78.6208 22.0153C78.7213 21.9954 78.8248 21.9961 78.925 22.0174C79.0252 22.0386 79.1201 22.08 79.2038 22.1389C79.12 22.3984 79.0969 22.6736 79.1362 22.9434C79.2511 23.8391 79.9508 23.6194 79.7108 22.8589C79.6336 22.5659 79.4536 22.3104 79.2038 22.1389C79.3965 21.5305 79.9102 21.1959 80.3327 21.3683C81.0932 21.6759 82.3337 24.5658 81.1879 25.9786Z" fill="#263238"/>
<path d="M75.4994 31.14C75.4994 31.14 74.188 29.7136 73.5255 30.2037C72.863 30.6938 73.9987 32.8638 74.8775 33.0632C74.9887 33.0964 75.1054 33.1068 75.2207 33.0938C75.336 33.0808 75.4475 33.0447 75.5485 32.9876C75.6495 32.9304 75.738 32.8535 75.8085 32.7614C75.8791 32.6692 75.9303 32.5638 75.9591 32.4514L75.4994 31.14Z" fill="#D3766A"/>
<path d="M73.8665 30.8188C73.8665 30.8188 73.8665 30.8188 73.8665 30.8391C74.4851 30.998 74.8806 31.5151 75.1611 32.039C75.1188 31.9847 75.0653 31.9402 75.0042 31.9086C74.9432 31.8769 74.8759 31.8588 74.8072 31.8556C74.7385 31.8524 74.6699 31.8641 74.6061 31.8899C74.5423 31.9158 74.4849 31.9551 74.4378 32.0052C74.4378 32.0052 74.4378 32.039 74.458 32.0356C74.5567 31.988 74.6678 31.9725 74.7757 31.9913C74.8836 32.0101 74.983 32.0622 75.0597 32.1404C75.1871 32.2713 75.3004 32.4152 75.3977 32.5697C75.4315 32.6204 75.5228 32.5697 75.4957 32.5224C75.4045 31.772 74.698 30.785 73.8665 30.8188Z" fill="#263238"/>
<path d="M80.6842 36.7711L79.8561 39.7826L75.8609 36.548L74.9788 37.8324C74.9788 37.8324 79.1429 43.2235 79.1328 42.9598L80.0386 40.3403L81.9483 41.8749L81.3129 37.5518L80.6842 36.7711Z" fill="#00B87C"/>
<path d="M81.7557 39.7182C81.6273 39.0084 81.5157 38.2918 81.3569 37.5888C81.3569 37.5618 81.3096 37.555 81.3062 37.5888C81.242 38.2952 81.749 41.006 81.8199 41.6617C81.7388 41.5941 80.0556 40.3097 80.0454 40.3469C79.8325 40.7728 79.1666 42.6791 79.1261 42.8515C78.4501 41.9929 75.9624 38.8935 75.2087 38.0992C75.2069 38.0965 75.2046 38.0942 75.2019 38.0925C75.1993 38.0907 75.1963 38.0894 75.1932 38.0888C75.1868 38.0875 75.1802 38.0888 75.1749 38.0924C75.1695 38.096 75.1657 38.1016 75.1645 38.1079C75.1632 38.1143 75.1645 38.1208 75.1681 38.1262C75.7697 39.0422 79.0923 43.2233 79.1328 43.1962C79.4946 42.2915 79.8094 41.3686 80.0759 40.4314C80.3665 40.7153 82.0836 42.1721 82.0768 42.0639C82.01 41.277 81.9029 40.4941 81.7557 39.7182Z" fill="#263238"/>
<path d="M109.309 23.528L103.354 13.7734C103.457 13.9404 103.586 14.0899 103.736 14.2161C103.903 14.3577 104.091 14.4718 104.293 14.5541C105.848 15.1862 108.765 14.4798 112.99 12.4518L118.946 22.2065C114.721 24.2345 111.804 24.9409 110.249 24.3088C110.046 24.2277 109.857 24.1135 109.691 23.9708C109.539 23.8465 109.41 23.6967 109.309 23.528Z" fill="#00B87C"/>
<g opacity="0.1">
<path opacity="0.1" d="M109.309 23.528L103.354 13.7734C103.457 13.9404 103.586 14.0899 103.736 14.2161C103.903 14.3577 104.091 14.4718 104.293 14.5541C105.848 15.1862 108.765 14.4798 112.99 12.4518L118.946 22.2065C114.721 24.2345 111.804 24.9409 110.249 24.3088C110.046 24.2277 109.857 24.1135 109.691 23.9708C109.539 23.8465 109.41 23.6967 109.309 23.528Z" fill="black"/>
</g>
<path d="M108.667 22.0173C108.809 22.2602 108.923 22.5188 109.005 22.7879C109.082 23.0454 109.188 23.2937 109.319 23.5281L103.354 13.7734C103.222 13.5396 103.117 13.2912 103.043 13.0332C102.957 12.7655 102.843 12.5073 102.705 12.2626L108.667 22.0173Z" fill="#00B87C"/>
<g opacity="0.4">
<path opacity="0.4" d="M108.667 22.0173C108.809 22.2602 108.923 22.5188 109.005 22.7879C109.082 23.0454 109.188 23.2937 109.319 23.5281L103.354 13.7734C103.222 13.5396 103.117 13.2912 103.043 13.0332C102.957 12.7655 102.843 12.5073 102.705 12.2626L108.667 22.0173Z" fill="black"/>
</g>
<path d="M102.715 12.2625L108.667 22.0172C108.552 21.8255 108.403 21.6561 108.228 21.5169C108.06 21.3863 107.874 21.2794 107.677 21.1992C106.061 20.5469 103.137 21.331 98.784 23.5889L92.8285 13.8342C97.1819 11.5764 100.106 10.7922 101.721 11.4479C101.919 11.5267 102.105 11.6337 102.272 11.7656C102.448 11.9037 102.598 12.0719 102.715 12.2625Z" fill="#00B87C"/>
<path d="M95.0354 22.1053C94.9293 23.1256 94.5417 24.0963 93.9159 24.909C93.2901 25.7218 92.4506 26.3445 91.4913 26.7078C90.532 27.071 89.4906 27.1604 88.4834 26.9661C87.4762 26.7717 86.5429 26.3011 85.7877 25.607L83.0195 26.0261L84.4053 23.6331C84.056 22.7867 83.9247 21.8663 84.0233 20.9561C84.1912 19.5081 84.9234 18.1848 86.0609 17.2733C87.1984 16.3617 88.6495 15.9356 90.0993 16.0873C91.549 16.2391 92.8804 16.9565 93.8046 18.0838C94.7287 19.2111 95.171 20.6573 95.0354 22.1087V22.1053Z" fill="white"/>
<path d="M95.0354 22.1053C94.9294 23.1254 94.5434 24.0963 93.92 24.9107C93.7648 25.1141 93.5966 25.3072 93.4163 25.4887C93.2317 25.666 93.0364 25.8319 92.8316 25.9855C92.4241 26.2946 91.9745 26.5439 91.4965 26.7258C91.0183 26.9127 90.5168 27.0333 90.0059 27.084C89.7505 27.1026 89.4941 27.1026 89.2387 27.084C88.9812 27.0773 88.7246 27.0501 88.4714 27.0029C87.4507 26.8159 86.5025 26.3476 85.7336 25.6509L85.7978 25.6712L83.033 26.0971L82.8336 26.1275L82.935 25.9517L84.3106 23.5519V23.6466C83.9862 22.8535 83.8479 21.9965 83.9065 21.1416C83.9651 20.2867 84.219 19.4566 84.6486 18.7152C85.0755 17.9753 85.6672 17.3438 86.3776 16.8696C87.088 16.3954 87.8982 16.0912 88.7452 15.9807C89.5829 15.8704 90.4348 15.9514 91.2367 16.2176C92.0387 16.4839 92.7698 16.9284 93.3752 17.5179C93.9806 18.1074 94.4445 18.8264 94.7321 19.621C95.0196 20.4155 95.1233 21.2649 95.0354 22.1053ZM95.0354 22.1053C95.123 21.2719 95.0184 20.4296 94.7295 19.643C94.4406 18.8564 93.9751 18.1466 93.3689 17.5681C92.7627 16.9897 92.0318 16.5579 91.2326 16.3062C90.4334 16.0544 89.587 15.9893 88.7587 16.1159C87.9379 16.2375 87.1561 16.5463 86.4738 17.0184C85.7961 17.4927 85.2307 18.11 84.8176 18.8267C84.4091 19.543 84.1687 20.3428 84.1146 21.1657C84.0621 21.9887 84.1937 22.8132 84.4999 23.579L84.5202 23.6297L84.4999 23.6601L83.1073 26.0498L83.0093 25.9044L85.7809 25.5157H85.8181L85.8451 25.5428C86.587 26.2289 87.5041 26.6968 88.4951 26.8948C88.7426 26.9437 88.9934 26.9742 89.2454 26.986C89.4975 27.0029 89.7504 27.0029 90.0025 26.986C90.5095 26.9435 91.0078 26.8297 91.483 26.648C91.9667 26.476 92.4223 26.2334 92.835 25.9281C93.0397 25.778 93.235 25.6154 93.4197 25.4413C93.5983 25.2607 93.7664 25.0699 93.9233 24.8701C94.5388 24.067 94.9233 23.111 95.0354 22.1053Z" fill="#263238"/>
<path d="M88.8837 24.6875L86.5177 22.2945L87.312 21.5103L88.6944 22.9062L91.564 18.4075L92.5037 19.0091L88.8837 24.6875Z" fill="#00B87C"/>
<ellipse cx="84.5" cy="84.4996" rx="82.472" ry="82.472" fill="#00B87C" fill-opacity="0.1"/>
</svg>
