<svg width="12" height="14" viewBox="0 0 12 14" fill="none" xmlns="http://www.w3.org/2000/svg">
<path d="M6.9999 5.24935H6.38644C6.38644 5.58815 6.6611 5.86281 6.9999 5.86281V5.24935ZM6.9999 2.91602L7.61337 2.91602L6.9999 2.91602ZM5.4999 1.16602V0.552553C5.24535 0.552553 5.01725 0.709752 4.92663 0.947626L5.4999 1.16602ZM3.4999 6.41602L2.92663 6.19763C2.90006 6.26737 2.88644 6.34138 2.88644 6.41602H3.4999ZM3.4999 12.8327H2.88644C2.88644 13.1715 3.1611 13.4461 3.4999 13.4461V12.8327ZM9.1399 12.8327L9.14799 12.2192H9.1399V12.8327ZM10.1399 11.841L9.53167 11.7611L9.53156 11.7619L10.1399 11.841ZM10.8299 6.59102L11.4381 6.67095L11.4382 6.67016L10.8299 6.59102ZM9.8299 5.24935V5.86286L9.83801 5.86276L9.8299 5.24935ZM3.49988 12.8327V13.4461C3.83868 13.4461 4.11334 13.1715 4.11334 12.8327H3.49988ZM3.49988 6.41602H4.11334C4.11334 6.07721 3.83868 5.80255 3.49988 5.80255V6.41602ZM7.61337 5.24935V2.91602H6.38644V5.24935H7.61337ZM7.61337 2.91602C7.61337 1.70284 6.75245 0.552553 5.4999 0.552553V1.77948C5.90421 1.77948 6.38644 2.1962 6.38644 2.91602L7.61337 2.91602ZM4.92663 0.947626L2.92663 6.19763L4.07318 6.63441L6.07318 1.38441L4.92663 0.947626ZM2.88644 6.41602V12.8327H4.11337V6.41602H2.88644ZM3.4999 13.4461H9.1399V12.2192H3.4999V13.4461ZM9.13181 13.4461C10.0123 13.4577 10.6432 12.7285 10.7482 11.9201L9.53156 11.7619C9.48711 12.1039 9.26475 12.2208 9.14799 12.2193L9.13181 13.4461ZM10.7481 11.921L11.4381 6.67095L10.2217 6.51108L9.53167 11.7611L10.7481 11.921ZM11.4382 6.67016C11.5015 6.18403 11.3815 5.67804 11.0877 5.28379L10.104 6.01701C10.1952 6.13935 10.2464 6.32116 10.2216 6.51187L11.4382 6.67016ZM11.0877 5.28379C10.7911 4.88581 10.3331 4.62918 9.8218 4.63594L9.83801 5.86276C9.91345 5.86176 10.0156 5.89839 10.104 6.01701L11.0877 5.28379ZM9.8299 4.63589H6.9999V5.86281H9.8299V4.63589ZM3.49988 12.2192H1.99988V13.4461H3.49988V12.2192ZM1.99988 12.2192C1.87171 12.2192 1.61334 12.0637 1.61334 11.666H0.386415C0.386415 12.557 1.02348 13.4461 1.99988 13.4461V12.2192ZM1.61334 11.666V7.58268H0.386415V11.666H1.61334ZM1.61334 7.58268C1.61334 7.18503 1.87171 7.02948 1.99988 7.02948V5.80255C1.02348 5.80255 0.386415 6.69167 0.386415 7.58268H1.61334ZM1.99988 7.02948H3.49988V5.80255H1.99988V7.02948ZM2.88642 6.41602V12.8327H4.11334V6.41602H2.88642Z" fill="#999999"/>
</svg>
